<svg width="24" height="24" viewBox="0 0 24 24" fill="none" xmlns="http://www.w3.org/2000/svg">
  <path fill-rule="evenodd" clip-rule="evenodd" d="M8 5V6H5C4.44772 6 4 6.44772 4 7C4 7.55228 4.44772 8 5 8V18C5 20.2091 6.79086 22 9 22H15C17.2091 22 19 20.2091 19 18V8C19.5523 8 20 7.55228 20 7C20 6.44772 19.5523 6 19 6H16V5C16 3.34315 14.6569 2 13 2H11C9.34315 2 8 3.34315 8 5ZM17 8H7V18C7 19.1046 7.89543 20 9 20H15C16.1046 20 17 19.1046 17 18V8ZM11 4C10.4477 4 10 4.44772 10 5V6H14V5C14 4.44772 13.5523 4 13 4H11ZM10 11C9.44772 11 9 11.4477 9 12V16C9 16.5523 9.44772 17 10 17C10.5523 17 11 16.5523 11 16V12C11 11.4477 10.5523 11 10 11ZM14 11C13.4477 11 13 11.4477 13 12V16C13 16.5523 13.4477 17 14 17C14.5523 17 15 16.5523 15 16V12C15 11.4477 14.5523 11 14 11Z" fill="#18171C"/>
</svg>
