<svg width="33" height="10" viewBox="0 0 33 10" fill="none" xmlns="http://www.w3.org/2000/svg">
<path d="M20.5171 0.799805V8.98068H22.4843V0.799805H20.5171Z" fill="#18171C80" />
<path d="M2.21708 8.98249L3.6535 6.57819L5.08992 8.98249H7.24455L4.77766 4.95451L7.02596 1.36367H4.87134L3.62228 3.48695L2.37322 1.36367H0.249813L2.46689 4.95451L0 8.98249H2.21708Z" fill="#18171C80" />
<path d="M9.02448 6.9204H7.02598C7.24457 8.32551 8.24382 9.13735 10.055 9.1998C11.9598 9.1998 12.8966 8.26306 12.8966 7.0453C12.8966 5.60897 11.6163 5.32794 10.5546 5.20304L10.4807 5.19288C9.62022 5.07448 9.11816 5.0054 9.11816 4.641C9.11816 4.32875 9.33675 4.11018 9.93005 4.11018C10.5234 4.11018 10.8356 4.32875 10.9293 4.7659H12.8341C12.6468 3.54814 11.8036 2.70507 9.96127 2.70507C8.21259 2.70507 7.2758 3.54814 7.2758 4.73467C7.2758 6.20223 8.52486 6.45203 9.58656 6.57693C9.65762 6.58546 9.72765 6.59347 9.79625 6.60131C10.4812 6.67965 11.023 6.74162 11.023 7.13897C11.023 7.48245 10.7419 7.66979 10.1486 7.66979C9.5241 7.66979 9.14938 7.45122 9.02448 6.9204Z" fill="#18171C80" />
<path fill-rule="evenodd" clip-rule="evenodd" d="M13.4584 6.04611V5.85876C13.4584 3.76671 14.7387 2.70507 16.581 2.70507C18.4234 2.70507 19.6725 3.79793 19.6725 5.85876V6.04611C19.6725 8.10694 18.4546 9.13735 16.5498 9.13735C14.5825 9.13735 13.4584 8.07572 13.4584 6.04611ZM17.7677 6.01488V5.85876C17.7677 4.85957 17.3305 4.32875 16.6123 4.32875C15.8941 4.32875 15.4257 4.82835 15.4257 5.85876V6.01488C15.4257 6.95163 15.8941 7.45122 16.6123 7.45122C17.2993 7.45122 17.7677 6.98285 17.7677 6.01488Z" fill="#18171C80" />
<path d="M23.5456 8.98068V0.799805H25.5128V8.98068H23.5456Z" fill="#18171C80" />
<path fill-rule="evenodd" clip-rule="evenodd" d="M28.1987 9.13735C29.3229 9.13735 30.0099 8.63776 30.3534 7.95082L30.5719 8.98123H32.1645V5.04692C32.1645 3.64181 31.4151 2.70507 29.3853 2.70507C27.4493 2.70507 26.4813 3.64181 26.3876 5.07815H28.3549C28.3861 4.48488 28.6984 4.17263 29.3853 4.17263C30.0411 4.17263 30.2597 4.42243 30.2597 4.7659C30.2597 5.17182 29.885 5.26549 28.9482 5.39039C27.9489 5.54651 27.5117 5.64019 27.0121 5.95244C26.5125 6.26468 26.2002 6.73305 26.2002 7.48245C26.2002 8.51286 26.856 9.13735 28.1987 9.13735ZM30.2597 6.10856V6.48326C30.2597 7.10775 29.7601 7.73224 28.9482 7.70102C28.4798 7.70102 28.23 7.5449 28.23 7.1702C28.23 6.95163 28.3236 6.7955 28.4798 6.6706C28.6984 6.54571 28.8857 6.48326 29.4166 6.38958C29.7913 6.32713 30.0723 6.23346 30.2597 6.10856Z" fill="#18171C80" />
</svg>
