<svg fill="none" height="18" viewBox="0 0 24 18" width="24" xmlns="http://www.w3.org/2000/svg" xmlns:xlink="http://www.w3.org/1999/xlink"><clipPath id="payment-icon-american-express-1"><path d="m0 2c0-1.10457.895431-2 2-2h20c1.1046 0 2 .895431 2 2v14c0 1.1046-.8954 2-2 2h-20c-1.10457 0-2-.8954-2-2z"/></clipPath><g clip-path="url(#payment-icon-american-express-1)"><path d="m0 2c0-1.10457.895431-2 2-2h20c1.1046 0 2 .895431 2 2v14c0 1.1046-.8954 2-2 2h-20c-1.10457 0-2-.8954-2-2z" fill="#1977c6"/><path d="m24 18h-18v-18h18v8.99912z" fill="#fff"/><path d="m15.0335 6.52071h-1.3674l.6837-1.64794zm.8995 2.13735h1.5471l-2.2235-5.03741h-1.7703l-2.2237 5.03741h1.5112l.4174-1.00747h2.3171zm6.7068 0h1.3602v-5.03741h-2.1157l-1.1299 3.13747-1.1226-3.13747h-2.1517v5.03741h1.3601v-3.52618l1.2954 3.52618h1.2089l1.2953-3.53347zm-8.0737 4.60264v-.7845h2.8425v-1.137h-2.8425v-.7843h2.9145v-1.16584h-4.289v5.03744h4.289v-1.1658zm8.0506-1.3652 1.3833 1.4716v-2.931zm-.4225 2.531h1.8058l-2.3887-2.5331 2.3887-2.50434h-1.777l-1.4752 1.61204-1.461-1.61204h-1.8062l2.3748 2.51874-2.3748 2.5187h1.756l1.4824-1.6264zm1.8058 3.5735v-2.8522h-2.1715l-1.1181-1.2362-1.1237 1.2362h-7.1597v-5.76168h-2.3109l2.8664-6.48688h2.7643l.9868 2.22229v-2.22229h3.4218l.5941 1.67464.5981-1.67464h2.6524v-2.89924h-18v18z" fill="#1977c6"/></g></svg>
