<svg fill="none" height="18" viewBox="0 0 24 18" width="24" xmlns="http://www.w3.org/2000/svg" xmlns:xlink="http://www.w3.org/1999/xlink"><clipPath id="payment-icon-aura-1"><path d="m0 2c0-1.10457.895431-2 2-2h20c1.1046 0 2 .895431 2 2v14c0 1.1046-.8954 2-2 2h-20c-1.10457 0-2-.8954-2-2z"/></clipPath><g clip-path="url(#payment-icon-aura-1)"><path d="m0 2c0-1.10457.895431-2 2-2h20c1.1046 0 2 .895431 2 2v14c0 1.1046-.8954 2-2 2h-20c-1.10457 0-2-.8954-2-2z" fill="#ed1c24"/><path d="m24 10.7786c-4.9887-1.61164-12.7831-3.23348-24-.5269v7.7483h24z" fill="#fff200"/><path d="m0 7.30579c10.8737-2.7571 19.5999-1.00972 24 .39946v-7.70525h-24z" fill="#2c328c"/><path clip-rule="evenodd" d="m6.90996 6.08155c.69208-2.06913 2.27611-3.85579 5.02824-3.83603 2.7522.01977 4.5877 1.7204 5.0831 3.9453-3.5463-.39871-5.9105-.46846-10.11134-.10927z" fill="#fff200" fill-rule="evenodd"/><g fill="#2c328c"><g clip-rule="evenodd" fill-rule="evenodd"><path d="m6.87027 12.046h-.81035l-2.00946 3.2423h.9408l.53733-.9148h1.91772l.56849.9148h.99636zm.24252 1.782h-1.26146l.43407-.7146c.06957-.1163.13108-.2377.18409-.3633.0739.1398.15268.2765.23618.4099z"/><path d="m14.9525 12.9145c.1359-.0562.2806-.0843.4265-.0827.2233.0007.4447.0426.6546.1236l.1212.0468-.3196.5402-.0865-.0328c-.1287-.0487-.2639-.0738-.3999-.0742h-.0015c-.1048-.0018-.2092.0197-.3066.0635l-.0028.0013c-.0684.0285-.1279.0817-.1674.1532-.0585.116-.0887.2468-.0873.3799v.0012 1.2552l-.8175-.0016v-2.4063h.7573v.1778c.0692-.0553.1438-.103.2228-.142z"/><path d="m19.0954 15.0727s-.3526.1452-.5369.1904l-.0019.0004c-.2254.0511-.4552.0761-.6855.0748-.3962 0-.7155-.0589-.9487-.1896-.2322-.1301-.3689-.3114-.3689-.5458v-.001c.0006-.0686.014-.1366.0394-.2.0253-.063.0622-.1204.1089-.1687.0978-.1059.2165-.1878.348-.2395.1466-.0578.2985-.0989.4532-.1225.1214-.0193.302-.0393.5398-.0569l.002-.0001c.323-.0179.6449-.0546.9643-.1101 0-.0493-.0028-.0955-.0267-.1402-.0198-.0372-.0485-.0659-.0815-.0838l.0033.0014-.0059-.0028.0026.0014c-.1985-.0886-.4125-.1277-.6263-.1147l-.0126.0008c-.1952-.0104-.3906.0173-.5767.0832l.0041-.0019-.0088.0036.0047-.0017c-.1051.0496-.1908.1425-.2367.2619l-.0297.0771-.8063-.0689.0443-.1326c.057-.1705.1608-.3197.299-.4273l.0044-.0034c.1726-.1211.3671-.2024.5712-.2387.2708-.0559.5462-.0823.822-.0787.2536-.0051.5071.0178.7564.0682.1613.0298.3158.0916.4557.1818l.0053.0034c.103.0752.1808.1818.2245.3043l.0024.0067.0015.007c.0261.1204.0367.244.0316.3674v.4965c-.0091.2086.0029.4177.036.6234.0255.0809.0682.1535.1238.2119l.177.1859h-.9346l-.033-.0408c-.0442-.0546-.1047-.1818-.1047-.1818zm-.9392-.7413c.2887-.0199.576-.0583.8604-.115l.0002.0034c.0072.1061-.0197.2109-.0748.2967-.0934.1057-.211.1806-.3393.2178l-.0037.0012c-.1879.0616-.3834.0908-.5795.0873l-.0081.0004c-.1619.0091-.3239-.0207-.4745-.0875-.0967-.0542-.1201-.105-.1208-.1472.0009-.0185.0055-.0364.0131-.0523.0079-.0165.0187-.0302.0311-.0405l.001-.0009c.0552-.0471.1194-.0784.1869-.0921l.0017-.0004c.1668-.0366.3365-.0603.5063-.0709z"/></g><path d="m10.4674 12.8818h-.81855v1.462c-.00494.1275.00828.2551.03972.3782l.00231.0071c.04194.1277.11763.2409.2192.3249l.00415.0031c.13257.0994.28287.1693.44197.2049.1996.0523.4044.078.61.0763.3975-.0001.7369-.0846 1.0114-.2597v.2097h.7563v-2.4065h-.8186l-.0002 1.284.0004.0066c.0076.1269-.021.2527-.0811.3604-.0718.0925-.1673.1573-.2725.1873l-.0064.0023c-.151.0534-.3089.0798-.4674.0785l-.0046.0001c-.139.0046-.2776-.0207-.408-.0743l-.0027-.0011c-.0735-.028-.1366-.0864-.1743-.1656-.0266-.1143-.037-.2324-.0311-.3503z"/></g></g></svg>
