<svg fill="none" height="18" viewBox="0 0 24 18" width="24" xmlns="http://www.w3.org/2000/svg"><path d="m0 2c0-1.10457.895431-2 2-2h20c1.1046 0 2 .895431 2 2v14c0 1.1046-.8954 2-2 2h-20c-1.10457 0-2-.8954-2-2z" fill="#fff"/><path d="m14.4338 13.4025h-4.86721v-8.80536h4.86721z" fill="#2271ce"/><path d="m9.87536 8.99998c0-1.78621.83074-3.37731 2.12454-4.40267-.9461-.7498-2.1401-1.19733-3.43772-1.19733-3.07198 0-5.56218 2.50716-5.56218 5.6 0 3.09282 2.4902 5.60002 5.56218 5.60002 1.29762 0 2.49162-.4476 3.43772-1.1974-1.2938-1.0253-2.12454-2.6164-2.12454-4.40262z" fill="#005eb6"/><path d="m21 8.99998c0 3.09282-2.4902 5.60002-5.5622 5.60002-1.2976 0-2.4916-.4476-3.4377-1.1974 1.2938-1.0253 2.1245-2.6164 2.1245-4.40262 0-1.78621-.8307-3.37731-2.1245-4.40267.9461-.7498 2.1401-1.19733 3.4377-1.19733 3.072 0 5.5622 2.50716 5.5622 5.6z" fill="#0099df"/></svg>