<svg fill="none" height="18" viewBox="0 0 24 18" width="24" xmlns="http://www.w3.org/2000/svg"><path d="m0 2c0-1.10457.895431-2 2-2h20c1.1046 0 2 .895431 2 2v14c0 1.1046-.8954 2-2 2h-20c-1.10457 0-2-.8954-2-2z" fill="#fff"/><g fill="#de0000"><path d="m9.82513 5.80786c1.99177 0 3.49247.50678 3.64697 2.18493l2.0963-2.18523h4.1739c-.908-1.06271-2.2573-1.73783-3.7613-1.73783h-8.02081c-1.5046 0-2.85419.67512-3.76224 1.73813z"/><path d="m20.0434 11.8208-2.6671-3.17192 2.5726-2.57622c.6099.82235.9714 1.83978.9714 2.93988 0 1.04226-.3245 2.01006-.8769 2.80826z"/><path d="m5.83672 9.88328.71127-1.95561h2.58951c.5797 0 1.0517.25951.8638.92821-.18983.67617-.44658 1.0274-1.2949 1.0274z"/><path d="m13.3647 9.2933 2.217 2.8017h4.2662c-.9069 1.1396-2.3051 1.8713-3.871 1.8713h-8.0208c-1.56648 0-2.965-.732-3.87195-1.8716h5.01319c2.51546 0 3.85726-.8911 4.26736-2.8014z"/></g></svg>