<svg fill="none" height="18" viewBox="0 0 24 18" width="24" xmlns="http://www.w3.org/2000/svg"><path d="m0 2c0-1.10457.895431-2 2-2h20c1.1046 0 2 .895431 2 2v14c0 1.1046-.8954 2-2 2h-20c-1.10457 0-2-.8954-2-2z" fill="#fff"/><path d="m13.0047 15.042c3.2912.0158 6.2953-2.6841 6.2953-5.96867 0-3.59183-3.0041-6.07455-6.2953-6.07336h-2.8325c-3.33071-.00119-6.07219 2.48227-6.07219 6.07336 0 3.28527 2.74148 5.98447 6.07219 5.96867z" fill="#0079be"/><path d="m10.1856 3.49771c-3.04354.00096-5.50977 2.46791-5.51049 5.51262.00072 3.04417 2.46693 5.51087 5.51049 5.51187 3.0442-.001 5.5109-2.4677 5.5113-5.51187-.0004-3.04471-2.4671-5.51166-5.5113-5.51262zm-3.49297 5.51262c.00287-1.48782.93207-2.75654 2.24236-3.2607v6.52067c-1.31029-.5039-2.23951-1.7719-2.24236-3.25997zm4.74297 3.26137v-6.52229c1.3108.50295 2.2414 1.77238 2.2438 3.26092-.0024 1.48897-.933 2.75747-2.2438 3.26137z" fill="#fff"/></svg>