<svg fill="none" height="18" viewBox="0 0 24 18" width="24" xmlns="http://www.w3.org/2000/svg" xmlns:xlink="http://www.w3.org/1999/xlink"><linearGradient id="payment-icon-discover-1" gradientUnits="userSpaceOnUse" x1="11.4444" x2="13.6666" y1="7.8" y2="10.0222"><stop offset="0" stop-color="#ff3700"/><stop offset=".510417" stop-color="#f50"/><stop offset="1" stop-color="#ff9200"/></linearGradient><radialGradient id="payment-icon-discover-2" cx="0" cy="0" gradientTransform="matrix(-1.66666483 -1.66666483 1.66666483 -1.66666483 13.111 9.52221)" gradientUnits="userSpaceOnUse" r="1"><stop offset=".738281" stop-color="#971b00" stop-opacity=".1"/><stop offset="1" stop-color="#661300"/></radialGradient><path d="m0 2c0-1.10457.895431-2 2-2h20c1.1046 0 2 .895431 2 2v14c0 1.1046-.8954 2-2 2h-20c-1.10457 0-2-.8954-2-2z" fill="#fff"/><g fill="#201d1c"><path d="m8.20351 8.95817c0 .9263.74222 1.64473 1.69301 1.64473.27228.0004.54088-.0626.78458-.184v-.7237c-.2502.24568-.4714.3451-.75563.3451-.63015 0-1.07771-.4453-1.07771-1.08732-.00356-.14025.02087-.2798.07184-.41051.05098-.1307.12748-.24994.22504-.35075.09757-.10081.21424-.18118.3432-.2364.12897-.05523.26765-.08421.40794-.08525.29692 0 .52402.10466.78452.35479v-.72367c-.2365-.12742-.501-.19399-.76968-.19372-.94782 0-1.70711.73331-1.70711 1.64922z"/><path d="m6.59584 8.1922c0 .17071.10985.26052.48542.39709l.00297.00074c.71179.25607.92258.48245.92258.98345 0 .61012-.45646 1.03462-1.10665 1.03462-.47874 0-.82536-.1848-1.11334-.6004l.40451-.38227c.06166.12805.15878.23571.27983.31018.12104.07449.26092.11259.40302.10989.27982 0 .48616-.18998.48616-.4453.00003-.06601-.01731-.13087-.05027-.18806s-.08039-.10471-.13752-.13778c-.13834-.07319-.28321-.13332-.43271-.17962-.5871-.20782-.78899-.43049-.78899-.86469 0-.51585.43272-.90329 1.00052-.90329.34637-.00254.68168.12182.94263.34959l-.32732.42158c-.16329-.1811-.31694-.25532-.50472-.25532-.26943 0-.46612.15141-.46612.34959z"/><path clip-rule="evenodd" d="m2.91813 7.3802h-.91813v3.1522h.91368c.48616 0 .83648-.1128 1.14451-.3637.18033-.1461.32605-.33041.42666-.5396.10062-.20919.15363-.43807.15524-.67019 0-.93001-.70734-1.57871-1.72196-1.57871zm.73109 2.36844c-.19669.17442-.45201.25087-.85652.25087h-.16478v-2.08565h.16775c.40451 0 .64944.07422.85652.25458.10958.09914.19707.22022.25679.35538.05972.13517.09032.28139.08983.42915.00037.14956-.03054.29753-.09074.43443-.06021.1369-.14837.26043-.25885.36124z" fill-rule="evenodd"/><path d="m5.55379 7.3802h-.6257v3.1522h.6257z"/><path d="m14.7871 7.3802.855 2.11682.8662-2.11682h.6784l-1.3858 3.2331h-.3369l-1.3605-3.2331z"/><path d="m17.4694 10.5324h1.7747v-.53363h-1.1497v-.85133h1.1074v-.53366h-1.1074v-.69918h1.1497v-.5344h-1.7747z"/><path clip-rule="evenodd" d="m20.5861 7.37945c.7214 0 1.1348.33697 1.1348.93075v.00297c0 .47948-.259.79641-.7303.89067l1.0094 1.32786h-.7667l-.8662-1.26625h-.0839v1.26625h-.6249v-3.15225zm-.3029 1.45328h.1826v-.00149c.3993 0 .6116-.17961.6116-.48615s-.2115-.46686-.6012-.46686h-.193z" fill-rule="evenodd"/></g><ellipse cx="12.5555" cy="8.96665" fill="url(#payment-icon-discover-1)" rx="1.66666" ry="1.66667"/><ellipse cx="12.5555" cy="8.96665" fill="url(#payment-icon-discover-2)" fill-opacity=".92" rx="1.66666" ry="1.66667"/></svg>
