<svg fill="none" height="18" viewBox="0 0 24 18" width="24" xmlns="http://www.w3.org/2000/svg"><path d="m0 2c0-1.10457.895431-2 2-2h20c1.1046 0 2 .895431 2 2v14c0 1.1046-.8954 2-2 2h-20c-1.10457 0-2-.8954-2-2z" fill="#000"/><path d="m6.01867 7.26945c.18133-.06134.376-.09334.57866-.09334.88534 0 1.624.62934 1.792 1.464l1.25334-.256c-.288-1.41866-1.54134-2.48799-3.04534-2.48799-.344 0-.67466.056-.984.16z" fill="#fff100"/><path d="m4.53829 11.3336.848-.96c-.37867-.336-.616-.82396-.616-1.37062 0-.544.23733-1.03467.616-1.368l-.848-.95734c-.64267.57067-1.04801 1.4-1.04801 2.328 0 .92534.40534 1.75736 1.04801 2.32796z" fill="#00a3df"/><path d="m8.38895 9.37097c-.17067.83463-.90667 1.46133-1.792 1.46133-.20267 0-.39733-.032-.58133-.0933l-.40534 1.2133c.30934.104.64267.16.98667.16 1.504 0 2.75733-1.0667 3.04533-2.48533z" fill="#ee4023"/><path clip-rule="evenodd" d="m13.0215 10.5495c.3094.0054.5894-.1173.7974-.32l.5466.56c-.3493.3387-.8293.5467-1.3546.5387-.3627-.0053-.696-.112-.9814-.2907l.416-.6613c.1654.1067.3627.1707.576.1733zm-1.88-1.14929c.016-1.04534.88-1.88267 1.9254-1.86667.888.016 1.624.63733 1.816 1.46133l-3.4347 1.46933c-.2-.304-.312-.67199-.3067-1.06399zm.7787.016c0 .04533.0027.09066.008.13333l1.96-.83467c-.2-.24-.4987-.392-.8347-.39733-.616-.01067-1.1226.48267-1.1333 1.09867zm4.0427.92529v-3.66129h-.728v3.67199c0 .1973.0533.3467.1227.4533.072.1067.168.2.3093.2614l.6293.2613.3014-.7227zm2.6455-2.02406c-.1253 0-.2427.01866-.3547.056l-.2453-.74134c.1867-.06133.3893-.096.6-.096.9173 0 1.6826.65067 1.8586 1.51734l-.7653.15733c-.104-.50933-.552-.89333-1.0933-.89333zm-.7413 1.94936-.5174.584c-.392-.3467-.64-.85336-.64-1.4187 0-.56533.248-1.07466.64-1.42133l.5174.584c-.2294.20267-.376.50133-.376.83467 0 .33333.144.63196.376.83736zm.7413.2826c.5386 0 .9893-.384 1.0933-.8933l.7653.15734c-.176.86666-.9413 1.51736-1.8586 1.51736-.2107 0-.4133-.0347-.6027-.0987l.248-.7413c.112.0373.232.0586.3547.0586z" fill="#fff" fill-rule="evenodd"/></svg>