<svg fill="none" height="18" viewBox="0 0 24 18" width="24" xmlns="http://www.w3.org/2000/svg"><path d="m0 2c0-1.10457.895431-2 2-2h20c1.1046 0 2 .895431 2 2v14c0 1.1046-.8954 2-2 2h-20c-1.10457 0-2-.8954-2-2z" fill="#fff"/><path d="m10.2721 13.6383-8.7721.0031v-.0211c0-.0116.01399-.0869.03107-.1673.01712-.0804.04369-.2083.05912-.2842.01537-.0759.0417-.2049.05844-.2867.01678-.0817.04467-.2179.06197-.3026.01726-.0846.04433-.2184.06016-.2972.01582-.0789.04218-.2079.05865-.2867.01644-.0788.04452-.2149.06237-.3025.01781-.0876.04491-.2214.06021-.2973.01531-.076.03962-.193.05404-.2601.01439-.0672.03279-.1579.04081-.2018.00805-.0437.0341-.1727.05789-.2866s.04999-.2429.05832-.2866c.0083-.0439.03466-.1729.0586-.2867.02391-.11385.05018-.24286.05838-.28667.00821-.04377.03463-.17279.05869-.28664.02412-.11389.05015-.24048.0578-.28135.00771-.04087.02878-.14597.04684-.23356.01803-.08759.0522-.25242.07589-.36627.02373-.11389.06426-.31215.09007-.44064.02587-.12846.05676-.28132.06867-.3397.01188-.05838.0334-.16351.04782-.23359s.04057-.19667.05814-.28132c.01757-.08471.04613-.22324.06349-.30792.01739-.08465.04415-.21605.05949-.29194.01534-.07593.04151-.20252.05817-.28135.01665-.07883.0453-.21739.06367-.30789.01837-.09053.04914-.22906.06837-.30789.01922-.07883.04641-.17438.06043-.21231.01399-.038.05266-.12023.0859-.18287l.06047-.11379.05495-.07201c.03019-.03955.08416-.1021.11989-.13896s.09598-.09233.13397-.12325c.03793-.03095.09288-.07271.12206-.09279.0292-.02009.08655-.05526.12742-.07816s.09824-.05287.12742-.06662c.0292-.01375.08893-.03888.13271-.05581.04378-.0169.12739-.04528.18577-.06301.05838-.01775.16801-.04451.2436-.05942.07559-.01494.19498-.0349.26543-.04436l.128-.01721 8.77744-.0033 8.7774-.0034v.02112c0 .01161-.0141.08689-.0313.16728-.0172.0804-.0459.21786-.0639.30545-.018.08758-.0441.21421-.0582.28134-.014.06717-.0407.19615-.0592.28665-.0184.09053-.0469.22909-.0631.30789-.0163.07883-.0426.20784-.0586.28665-.0159.07886-.0424.20784-.0588.28667-.0165.07883-.042.20307-.0568.27605-.0147.07299-.0414.20436-.0592.29194-.0179.08759-.0466.22615-.0638.3079-.0172.08174-.0434.20836-.0582.28134-.0149.07299-.0416.20436-.0594.29195-.0178.08758-.0464.22615-.0636.30792-.0172.08174-.0428.20594-.057.27602-.0141.07005-.0407.20144-.0591.29194s-.0451.2219-.0595.292c-.0144.07005-.04.19428-.0569.27599-.0171.08178-.0461.22273-.0646.31322-.0185.09053-.045.21948-.0589.28668-.0139.0671-.0398.1937-.0577.2813-.0178.0876-.0462.2261-.0631.3079-.0169.0817-.0433.2108-.0588.2867s-.0424.2073-.0597.2919c-.0175.0847-.0459.2232-.0632.3079s-.0433.2113-.0577.2814c-.0144.07-.0407.199-.0585.2866s-.0468.2256-.0644.3067l-.0319.1475-.0381.102c-.0209.0561-.0524.1307-.07.1658-.0175.035-.0533.0968-.0794.1373s-.0625.0924-.0809.1154c-.0184.0229-.0737.0821-.123.1316l-.0895.0898-.0862.0613c-.0474.0336-.0984.0679-.1134.0761-.015.0081-.0721.0373-.1269.0647-.0548.0275-.1322.0624-.172.0776-.0397.0153-.1186.0412-.1751.0576-.0566.0165-.1172.0328-.1347.0361-.0175.0034-.0783.0159-.1351.028-.0568.012-.1715.03-.2548.0399l-.1516.018zm-3.12094-2.269h.22826l.00643-.0169c.00358-.0092.00646-.0309.00646-.0482s.00753-.0802.01675-.1398c.00918-.0596.03073-.1967.04794-.3048.01717-.108.04289-.2704.05716-.3609.01426-.0906.03168-.2064.03872-.2575.00702-.0511.01556-.0929.01902-.0929.00343 0 .01818.0226.03278.0502l.02652.0501.05884.0594.05887.0592.07243.0291.07247.029.08633.0112.08637.0111.10957-.0067.1096-.0067.11866-.0307.11869-.0308.06368-.029c.03506-.016.09714-.0509.13801-.0775l.07433-.0484.06928-.0693c.03812-.038.09188-.0991.11943-.1357.02762-.03654.05018-.06912.05018-.07236 0-.00328.01356-.0259.03013-.05033.01656-.0244.05042-.09218.07528-.15057.02489-.05838.06371-.16348.08636-.23355l.04115-.12742.02127-.11034c.0117-.06068.02676-.161.03347-.22296l.01215-.11257-.00704-.09555-.00701-.09555-.02217-.09558-.02213-.09555-.03588-.07151-.03585-.07155-.06928-.07345-.06925-.07344-.08196-.04234-.08195-.04234-.09026-.02164-.09025-.02159-.09025-.00661-.09022-.00661-.10051.01154-.10057.01154-.08201.02097-.08205.02091-.0713.03303c-.03919.0181-.09626.04893-.12675.06846-.03052.01953-.06202.04197-.06998.0499-.00793.00793-.02701.02265-.04231.03264l-.02789.01827.01947-.09328c.01074-.05128.01968-.09919.01993-.10654l.00043-.01326h-.19468-.19462l-.0341.21501c-.0188.11827-.04844.30097-.06589.4061-.01745.1051-.04381.26274-.0585.35033-.0147.08759-.04093.24286-.05832.34506-.01736.10216-.04605.26463-.06377.36097-.01773.09635-.04366.23726-.05768.31326-.01399.0759-.04038.2192-.05857.3184-.01818.0993-.04745.257-.06502.3504-.01758.0934-.04614.2415-.0635.3291-.01739.0876-.03416.17-.03738.1831l-.00578.024zm.98273-1.2275-.08863.0053-.05792-.0103-.05796-.0102-.05884-.0268-.05887-.0269-.04108-.0393-.04112-.03922-.02373-.05308c-.01307-.02921-.02981-.07881-.03725-.11025l-.01354-.05713.00542-.0915.00545-.09148.02734-.14334c.01503-.07883.04203-.22694.06001-.3291.01797-.1022.04521-.25196.06049-.33275l.02777-.14696.06086-.05063c.03349-.02783.08652-.06518.11787-.08294l.05694-.03233.0743-.02299.07433-.02302.09555-.0056.09555-.0056.07782.01659.07779.01656.05493.02529.05489.02529.04604.04629.04608.04628.0248.04902c.01368.02697.03288.07972.04264.11725l.01779.06824-.00545.20175-.00545.20172-.02725.11925c-.015.06557-.04353.1659-.06343.22293l-.03616.10373-.04433.08394c-.02436.0462-.06193.10859-.08348.13869-.02155.03006-.05593.06909-.07639.0866-.02038.0176-.05464.045-.07604.061l-.03891.029-.0901.0307-.0901.0306zm2.20461.2918.1168.0014.1167-.0107c.0643-.0058.1694-.0181.2336-.0271.0643-.0091.1752-.0293.2466-.045l.1298-.0286.0065-.0478c.0035-.0263.0181-.1046.0324-.1741l.0259-.12627-.0058-.00569-.0057-.0057-.0396.01914c-.0219.01053-.0899.03572-.1511.05582l-.1114.0367-.1169.0227-.1168.0226-.1858.0004-.1858.0003-.0638-.0203c-.035-.0112-.0865-.0316-.1144-.0455l-.0508-.0251-.042-.03792-.0419-.0379-.03275-.05716-.03273-.05722-.02051-.0717-.02051-.07173-.00012-.13274-.00016-.13278.01819-.11838.01824-.11845.15975-.00747.1597-.00747.5906.00382.5906.00377.0178-.07562c.0098-.0416.0248-.1276.0334-.19109l.0154-.11548.0004-.09711.0003-.09714-.0168-.07253-.0168-.07249-.0279-.04801c-.0152-.02639-.0422-.06466-.0598-.08505-.0176-.02035-.0491-.04907-.07-.0638-.0209-.01472-.0618-.03949-.091-.05501l-.0531-.02823-.0927-.02235-.0928-.02231-.1142-.01093-.1144-.01093-.1061.00692-.1062.00688-.1274.02447-.1274.02449-.0796.03181c-.0438.01748-.1107.04944-.1486.07096-.038.02152-.09054.05655-.11681.07782-.02633.02131-.07182.0627-.10112.092-.02933.02933-.07274.08192-.0964.11698-.0237.03505-.06001.09714-.08073.13801-.0207.0409-.04767.09821-.05995.12742-.01224.02917-.03456.0889-.04953.13268-.015.04381-.03855.12742-.05232.18583-.01381.05838-.0327.15448-.04204.21357l-.01693.10746.00019.15797.00015.15797.01613.06904c.00885.03793.02584.0953.03769.12738.01185.03215.03383.07995.04877.10615.01494.0263.0469.0686.07096.094.02407.0255.06766.0641.09687.0858.02917.0217.08116.0523.11548.0679l.06242.0284.08704.0211c.04783.0115.12013.0253.16053.0305.0404.0051.1261.01.1903.0107zm.1999-1.49561c-.2939 0-.5344-.00208-.5344-.00468 0-.00254.0126-.03959.0279-.08229.0153-.04268.0423-.10618.0598-.14114l.032-.06358.0702-.06984.0702-.06989.0691-.03297c.0379-.01816.0881-.03793.1114-.04393.0234-.006.0903-.01396.1487-.01767l.1062-.00683.0815.01051.0815.01047.0593.02712.0592.02712.0325.03506c.0179.01926.0392.04763.0474.06303l.0148.02805.0098.06221.0098.0622-.0112.10351-.0112.10354zm3.1763 1.49571.1169.0013.1326-.0157c.0729-.0087.17-.023.2158-.0319.0457-.0089.1198-.0265.1646-.0391.0447-.0127.0852-.0263.09-.0304.0047-.0041.0173-.0522.0281-.1071.0107-.0548.0242-.1283.03-.1633.0058-.0351.0088-.06561.0066-.06791-.0021-.00229-.0099.00068-.0173.00656-.0075.00593-.0596.02785-.1158.04875l-.1022.0379-.1456.0282-.1456.0282-.1238-.0042-.1237-.0042-.0704-.0244-.0703-.0244-.0543-.0475-.0543-.04751-.0361-.06564-.036-.0656-.0172-.08784-.0171-.0878.0001-.11389.0001-.11391.0208-.13801.0209-.13805.0221-.07433c.0121-.04087.0259-.08863.0305-.10614.0047-.01754.0241-.06769.0433-.1115.0191-.04378.0533-.11147.0759-.15041l.0411-.07075.0504-.05232.0505-.05232.0534-.03312.0535-.03316.0687-.02115c.0377-.01164.1045-.02673.1482-.03353l.0797-.01243.1167.00588.1168.00585.138.02764.1381.02759.0561.02094c.0308.01151.0575.02097.0591.02097.0017 0 .0091-.03943.0165-.08762.0074-.04816.0205-.12742.0292-.1761.0088-.04873.0138-.09068.0112-.09322-.0026-.00257-.044-.00915-.0922-.01463-.0481-.00548-.179-.01522-.2907-.02168l-.2033-.01166-.1433.01099-.1433.01102-.1062.02229-.1062.02232-.0684.02734c-.0376.01503-.0926.04218-.1224.06031-.0297.01815-.0675.04252-.084.05419-.0165.01169-.0666.05724-.1114.10127l-.0813.08002-.0454.0665c-.0249.03658-.0681.11282-.0959.16948l-.0506.10299-.0388.11144c-.0213.06132-.0511.16164-.0661.22296l-.0274.1115-.01.10085-.0099.10087.0001.13272.0001.13268.01.07721.01.07721.0318.07942.0318.07937.0368.0574.0367.0574.0584.0575.0584.0575.0618.0327.0618.0326.0811.0226c.0446.0124.1091.0266.1433.0316s.1148.0097.1791.0104zm1.7464-.0039.1433-.0042.0902-.0231.0903-.0231.0584-.0276c.0321-.0151.0847-.0451.1168-.0665.0321-.0215.0818-.0623.1105-.0907.0286-.0284.071-.0768.0943-.1076s.0437-.0547.0454-.0529c.0018.0017-.0036.0508-.0119.1091-.0082.0583-.0151.1358-.0152.1723l-.0002.0664h.1949.1948l.006-.1513.0059-.1513.0278-.19642c.0153-.10804.04-.26809.055-.35565.0148-.08759.0407-.23567.0575-.32914.0167-.09343.0433-.23913.0589-.32381l.0285-.15393.001-.13296.0009-.13299-.03-.06144-.0301-.06148-.0407-.03912-.0408-.03916-.0669-.03389-.067-.03395-.0998-.02219-.0997-.0222-.1374-.01044-.1373-.01044-.177.01096c-.0973.006-.2342.01788-.3043.02642l-.1274.01543-.0868.00034-.0869.00033-.0126.06108c-.007.03355-.0263.11331-.0429.17726-.0167.06392-.0287.11774-.0268.11964.0018.0019.0483-.00866.1031-.02342.0549-.01479.1715-.03903.2591-.05397l.1592-.02713.1433-.00587.1434-.00594.0923.01619.0923.0162.0616.0304.0616.03043.0346.05143.0345.0514-.0005.08107-.0005.0811-.0183.08896-.0183.089-.382.00138-.382.00135-.125.03428c-.0688.01886-.1449.04391-.1692.05563-.0243.01176-.0487.02137-.0541.02137s-.0463.02265-.0909.05042l-.081.05036-.0639.06374c-.0351.03506-.08.08762-.0997.11683-.0197.02917-.0517.09016-.0712.13553l-.0353.08244-.0162.09271-.0162.09273v.09726.09729l.0154.08098.0155.081.0288.0528c.0158.029.0448.0716.0645.0946l.0357.0417.0635.0386.0635.0386.0727.0205c.04.0113.1008.025.1352.0305l.0625.0099.1434-.0041zm.1327-.2969-.085.0044-.0562-.0143c-.0309-.0079-.0779-.0255-.1043-.0391l-.0481-.0247-.0262-.0312c-.0145-.0171-.0365-.05083-.049-.07486l-.0228-.04371-.0044-.10204-.0045-.10207.018-.06191c.0099-.03404.0331-.09316.0516-.1313l.0336-.06941.0644-.06389.0644-.06392.0683-.03291.0683-.03288.0849-.02021.085-.02017h.2654.2655l.0167.00695.0168.00692-.0141.08333c-.0078.0458-.0263.12867-.0412.18415-.0149.0555-.0412.13703-.0584.1812-.0172.04421-.0313.08328-.0313.08683 0 .00358-.0175.03576-.0388.07154l-.0388.06512-.0636.0631c-.035.03465-.0676.06304-.0723.06304s-.0261.012-.0476.0266l-.0392.0265-.0861.0272-.0861.0272zm3.4557.3006.1009.0013.0956-.0155c.0525-.0085.1194-.0223.1486-.0305.0292-.0083.0818-.0297.1168-.0477l.0637-.0326.0548-.0483.0548-.0482.0577-.0769c.0318-.0424.0605-.0842.0639-.093l.0061-.0159-.0053.0531c-.003.0292-.0095.077-.0147.1062s-.0125.0853-.0163.1247l-.0071.0717h.2083.2083v-.0717-.0716l.0317-.27079c.0174-.14891.0432-.34714.0573-.44058.0141-.09346.0359-.22719.0484-.29727.0125-.07007.0346-.1967.0491-.28134.0146-.08465.0408-.2328.0584-.32911.0176-.09638.0457-.24924.0625-.33973.0168-.09053.0429-.23148.058-.31322s.0422-.22508.0601-.31849c.0181-.09343.0443-.22483.0584-.292.0141-.06711.0257-.12567.0256-.13002v-.00799h-.2272-.2272l-.0067.06637c-.0037.0365-.0211.15712-.0386.2681-.0176.11091-.0463.28768-.0637.39278-.0175.1051-.0342.20705-.0373.22652l-.0057.03539-.0179-.00762c-.0099-.0042-.0634-.01905-.1188-.03298l-.1009-.02531-.138-.01075-.138-.01075-.1168.01087-.1168.0109-.1062.02685-.1061.02682-.1009.0492-.1009.0492-.0743.05498-.0743.05501-.0642.06886c-.0353.03784-.0863.10044-.1133.13911l-.0491.07029-.0578.12007c-.0317.06607-.0703.15353-.0858.1944-.0155.0409-.0427.13149-.0606.20136l-.0325.12705-.016.16495-.016.16489.012.13271.012.13272.0142.04776c.0079.0263.0243.07309.0367.10399l.0224.0563.0408.0553.0409.0554.0467.0382.0467.0382.0637.0317c.035.0173.0938.0398.1306.0499.0367.0101.0965.0222.1327.0269s.1111.0091.1666.0098zm.1811-.3011-.0802.0042-.0541-.0098c-.0297-.0053-.0773-.0197-.1058-.0319l-.0517-.0221-.0436-.0357-.0435-.0356-.0323-.06198-.0323-.06193-.0148-.06901-.0147-.06904.0013-.13801.0012-.13801.0171-.12212.0171-.12206.0266-.08492c.0146-.04672.0267-.09081.0268-.09797.0001-.00714.0145-.04534.0321-.0849.0176-.03958.0469-.1006.0652-.13565s.0525-.08964.076-.12136c.0236-.03171.0655-.0795.0931-.1062.0277-.02663.0717-.06166.0979-.07773l.0475-.02924.0835-.0289.0834-.0289.1752-.00009h.1752l.1008.02801c.0555.01537.1144.03322.1309.03965l.0301.01166-.0059.02915c-.0032.01604-.0158.08649-.028.15653-.0122.07008-.0363.20386-.0534.2973-.0172.09344-.0436.23439-.0587.31319-.0151.07883-.0369.17916-.0485.22293-.0116.04381-.028.10446-.0364.1348-.0085.03034-.0285.08294-.0446.1168-.016.03389-.0442.08311-.0625.10938s-.0492.0627-.0687.08089c-.0196.01824-.0618.05053-.094.07193l-.0583.0388-.0844.0268-.0845.0268zm-15.62529.2495h.25793l.01852-.1141c.01016-.0628.03006-.1835.04418-.26812.01411-.08465.04041-.24235.05838-.35036.018-.10804.045-.26809.05997-.35565.01497-.08759.03879-.22345.05287-.30192.01412-.07853.02835-.14539.0316-.14866l.00597-.00594h.69363.69361l.00771.00768.00772.00772-.01206.06129c-.00659.03373-.02615.13773-.04345.23117-.01729.09343-.04638.2511-.06465.35038-.01822.09926-.04461.24021-.0586.31319-.01402.07299-.04237.22582-.063.33972-.02061.1139-.03745.213-.03738.2203l.00012.0133h.259.25903l.01145-.0664c.00634-.0365.01644-.1022.02256-.1459.00606-.0439.02079-.137.03264-.20709.01184-.07005.03551-.20864.05262-.30789.01709-.09925.04574-.26886.06362-.3769s.04439-.26567.05896-.35032c.01451-.08471.04045-.22802.05756-.31852.01711-.09052.04565-.24338.0634-.33976.01776-.09631.0443-.24204.05906-.32381.01475-.08174.04163-.22985.05976-.32911.01812-.09925.04099-.21509.05082-.25747l.01788-.07696h-.26225-.26227l-.00714.05045c-.00389.02771-.01656.10538-.02813.17252-.01161.06716-.03261.18656-.04675.26539-.01414.07887-.03998.22934-.05743.33447-.01745.10507-.03968.24421-.04942.30918l-.01769.11808-.38498.0078-.38501.00778-.32243-.00765c-.17735-.0042-.32345-.00851-.32467-.00949-.0012-.00104.00483-.04228.01341-.09169.0086-.04942.02483-.13526.03609-.1907.01127-.05548.03264-.16535.04745-.24422.01485-.0788.03163-.17673.03735-.21761.0057-.04087.01767-.10895.02658-.15132.00891-.04231.02581-.13149.03756-.19814.01173-.06665.02425-.12877.02783-.13801l.00643-.01684h-.26013-.26017l-.01662.09292c-.00918.05109-.0214.12392-.02716.16189-.00578.03796-.02516.15977-.04307.27072s-.04436.27578-.05878.36627c-.01442.09053-.04063.25536-.05826.36628-.0177.11098-.04681.28294-.06478.38219-.01794.09932-.04393.24023-.05777.31322-.01381.07299-.04011.21155-.05847.30789-.01834.09638-.04519.23252-.05955.3026-.01439.07004-.03028.15126-.0353.18045-.00508.0292-.02149.1134-.03655.1871-.01503.0738-.02734.1418-.02734.1513v.0173zm2.85567 0h.22836l.00643-.0168c.00358-.0093.00646-.0335.00646-.0538 0-.0204.01438-.1263.0319-.2354.01757-.1091.04656-.2867.06447-.39474.01788-.10801.0443-.26567.05872-.35035.01442-.08465.04001-.22557.05691-.31322.0169-.08756.04286-.22373.05768-.30253.01479-.07884.04393-.22882.06472-.33331.02079-.10448.04038-.19412.04353-.19924l.00579-.00933-.23093.00284-.23092.00285-.01929.13804c-.01053.07593-.03368.22643-.05137.33441-.01767.10804-.04442.2729-.05945.36627-.01504.09347-.04118.24394-.05817.33446-.01699.0905-.04302.22903-.05786.30787-.01482.07886-.04143.21739-.05912.30789-.0177.09049-.04142.20999-.05275.26539-.01136.0555-.02351.1117-.02706.1248l-.0064.0239zm5.34102 0h.2267l.0068-.0959c.0037-.0528.0165-.1591.0285-.2363.0119-.07715.0364-.23105.0543-.34196.0179-.11098.0512-.29565.074-.41042.0229-.11475.0486-.22882.0573-.25346.0087-.02468.0158-.05137.0158-.05936 0-.00803.0171-.05162.0379-.0969s.0596-.11459.0863-.15405l.0484-.07176.0647-.06001.0648-.05994.0799-.03815.0799-.03817.1221.00067.122.00064.0601.01791c.033.00986.0628.01794.0663.01794s.0063-.01126.0063-.02507c0-.01378.012-.0837.0266-.1554.0146-.07167.0265-.13333.0265-.13703 0-.00371-.0346-.01727-.0769-.03013-.0424-.01286-.1009-.02633-.1301-.02997l-.0531-.00655-.069.01221c-.0379.00671-.0944.02153-.1254.03295-.031.01138-.0822.03722-.1138.05743-.0316.02024-.0807.05961-.1092.0875-.0285.02792-.0764.08422-.1064.12509s-.0615.08388-.0698.09555l-.0152.02121.0092-.04243c.0051-.02339.0192-.09983.0314-.16988.0122-.07008.0248-.13581.0279-.14597l.0056-.01862h-.2024-.2025v.0256c0 .01408-.0119.09885-.0265.18843-.0146.08961-.0387.23932-.0535.33275-.0148.09344-.0412.25588-.0585.36098s-.0437.2556-.0585.3344c-.0148.07884-.0412.2174-.0586.30793-.0173.09046-.0462.23861-.064.32914-.0179.0905-.0393.1973-.0475.2375-.0083.0401-.0151.0771-.0151.0822v.0094zm5.3808 0h.2318v-.0709-.071l.0267-.1759c.0147-.09672.0389-.24998.0538-.34044.015-.09053.0336-.20518.0414-.25484.0078-.04963.0285-.15712.046-.23886.0175-.08177.0394-.17012.0486-.19642.0092-.02627.0168-.05385.0169-.06126s.0198-.05511.0439-.10599l.0437-.09255.0578-.07669.0577-.07665.0631-.04749c.0347-.02614.0906-.06077.1242-.07702l.061-.02955.1326.00092.1328.00095.0522.01675.0522.01677.0089-.00545.0087-.00545.0005-.03386c.0003-.01864.0116-.08795.0253-.15408l.0248-.12019-.0279-.01093c-.0154-.006-.0518-.01843-.081-.02762l-.0531-.01674-.0955.00027-.0956.00022-.0779.02743-.0779.02737-.0584.03527-.0585.03526-.076.07963-.076.0796-.0409.06178c-.0224.03398-.0422.06025-.0439.05838-.0017-.00183.0105-.07265.0271-.1573.0166-.08468.0305-.1647.0307-.17784l.0005-.02391h-.1964-.1964v.0068c0 .00371-.0098.07179-.0218.15127-.012.0795-.036.23291-.0534.34095-.0174.10801-.0459.28239-.0635.38752-.0174.1051-.0438.25561-.0586.33444-.0147.0788-.0409.21736-.0582.30786-.0172.09053-.0456.23625-.063.32389-.0173.0875-.0404.2034-.0512.2574l-.0196.0982zm-10.27276-2.59073.06441.00021.05125-.01745.05128-.01745.04534-.04601.04537-.04599.02385-.06132.02391-.06129.00083-.09025.00085-.09019-.02121-.03527-.02125-.03524-.03695-.02287-.03698-.0229h-.07982-.07981l-.05434.02434-.05434.02431-.03153.0338-.03154.03383-.02479.05838-.02477.05838-.00469.09096-.00465.09096.02302.04521.02309.04519.04451.02021.04448.02017z" fill="#b3131b"/></svg>