<svg fill="none" height="18" viewBox="0 0 24 18" width="24" xmlns="http://www.w3.org/2000/svg" xmlns:xlink="http://www.w3.org/1999/xlink"><linearGradient id="payment-icon-jcb-1"><stop offset="0" stop-color="#007940"/><stop offset=".2285" stop-color="#00873f"/><stop offset=".7433" stop-color="#40a737"/><stop offset="1" stop-color="#5cb531"/></linearGradient><linearGradient id="payment-icon-jcb-2" gradientUnits="userSpaceOnUse" x1="16.1464" x2="22.8183" xlink:href="#payment-icon-jcb-1" y1="10.0124" y2="10.0124"/><linearGradient id="payment-icon-jcb-3" gradientUnits="userSpaceOnUse" x1="16.1466" x2="22.8182" xlink:href="#payment-icon-jcb-1" y1="8.98602" y2="8.98602"/><linearGradient id="payment-icon-jcb-4" gradientUnits="userSpaceOnUse" x1="16.1463" x2="22.8177" xlink:href="#payment-icon-jcb-1" y1="7.86959" y2="7.86959"/><linearGradient id="payment-icon-jcb-5" gradientUnits="userSpaceOnUse" x1="1.21147" x2="7.98602" y1="8.98602" y2="8.98602"><stop offset="0" stop-color="#1f286f"/><stop offset=".4751" stop-color="#004e94"/><stop offset=".8261" stop-color="#0066b1"/><stop offset="1" stop-color="#006fbc"/></linearGradient><linearGradient id="payment-icon-jcb-6" gradientUnits="userSpaceOnUse" x1="8.64347" x2="15.2229" y1="8.98602" y2="8.98602"><stop offset="0" stop-color="#6c2c2f"/><stop offset=".1735" stop-color="#882730"/><stop offset=".5731" stop-color="#be1833"/><stop offset=".8585" stop-color="#dc0436"/><stop offset="1" stop-color="#e60039"/></linearGradient><path d="m0 2c0-1.10457.895431-2 2-2h20c1.1046 0 2 .895431 2 2v14c0 1.1046-.8954 2-2 2h-20c-1.10457 0-2-.8954-2-2z" fill="#fff"/><path d="m17.4705 10.7143h1.5588c.0445 0 .1484-.0147.193-.0147.2969-.0586.5492-.3223.5492-.6886 0-.35167-.2523-.61541-.5492-.68867-.0446-.01465-.1337-.01465-.193-.01465h-1.5588z" fill="url(#payment-icon-jcb-2)"/><path d="m18.8511 1c-1.4845 0-2.7018 1.18681-2.7018 2.66667v2.76923h3.8152c.0891 0 .193 0 .2673.01465.861.04396 1.4993.48352 1.4993 1.24542 0 .60073-.4305 1.11355-1.2321 1.21612v.0293c.8758.05861 1.5439.54213 1.5439 1.28941 0 .8058-.7423 1.3333-1.7221 1.3333h-4.1864v5.4213h3.9637c1.4846 0 2.7019-1.1869 2.7019-2.6667v-13.3187z" fill="url(#payment-icon-jcb-3)"/><path d="m19.5785 7.8718c0-.35165-.2523-.58608-.5492-.63004-.0297 0-.1039-.01465-.1485-.01465h-1.4103v1.28938h1.4103c.0446 0 .1336 0 .1485-.01465.2969-.04396.5492-.27839.5492-.63004z" fill="url(#payment-icon-jcb-4)"/><path d="m3.9167 1c-1.48454 0-2.70186 1.18681-2.70186 2.66667v6.57873c.75712.3663 1.54392.6008 2.33072.6008.93526 0 1.44-.5568 1.44-1.31873v-3.10622h2.31588v3.09157c0 1.20148-.75711 2.18318-3.32536 2.18318-1.55876 0-2.77608-.337-2.77608-.337v5.6117h3.96371c1.48453 0 2.70186-1.1868 2.70186-2.6667v-13.304z" fill="url(#payment-icon-jcb-5)"/><path d="m11.3839 1c-1.48453 0-2.70185 1.18681-2.70185 2.66667v3.48718c.68289-.57143 1.87055-.93773 3.78555-.84982 1.0244.04396 2.1229.32234 2.1229.32234v1.12821c-.5493-.27839-1.2025-.52747-2.0487-.58608-1.4548-.10257-2.3307.60073-2.3307 1.8315 0 1.2454.8759 1.9487 2.3307 1.8315.8462-.0586 1.4994-.3223 2.0487-.5861v1.1282s-1.0837.2784-2.1229.3224c-1.915.0879-3.10266-.2784-3.78555-.8498v6.1538h3.96375c1.4845 0 2.7018-1.1868 2.7018-2.6667v-13.3333z" fill="url(#payment-icon-jcb-6)"/></svg>
