<svg fill="none" height="18" viewBox="0 0 24 18" width="24" xmlns="http://www.w3.org/2000/svg"><path d="m0 2c0-1.10457.895431-2 2-2h20c1.1046 0 2 .895431 2 2v14c0 1.1046-.8954 2-2 2h-20c-1.10457 0-2-.8954-2-2z" fill="#fff"/><path d="m20.8288 12.4705v-.2174h-.054l-.063.1449-.063-.1449h-.054v.2174h.036v-.1631l.063.145h.045l.063-.145v.1631zm-.36 0v-.1812h.072v-.0362h-.18v.0362h.072v.1812z" fill="#00a2e5"/><path d="m14.43 13.4039h-4.86884v-8.8078h4.86884z" fill="#7375cf"/><path d="m9.87582 8.99999c0-1.78511.82798-3.37993 2.12398-4.40388-.945-.7521-2.14198-1.19612-3.43795-1.19612-3.06892 0-5.56185 2.51003-5.56185 5.6 0 3.09001 2.49293 5.60001 5.56185 5.60001 1.29597 0 2.49295-.444 3.43795-1.1961-1.296-1.024-2.12398-2.6188-2.12398-4.40391z" fill="#eb001b"/><path d="m21 8.99999c0 3.09001-2.4929 5.60001-5.5618 5.60001-1.296 0-2.493-.444-3.438-1.1961 1.296-1.024 2.124-2.6188 2.124-4.40391s-.828-3.37993-2.124-4.40388c.945-.7521 2.142-1.19612 3.438-1.19612 3.0689 0 5.5618 2.51003 5.5618 5.6z" fill="#00a2e5"/></svg>