<svg fill="none" height="18" viewBox="0 0 24 18" width="24" xmlns="http://www.w3.org/2000/svg"><path d="m0 2c0-1.10457.895431-2 2-2h20c1.1046 0 2 .895431 2 2v14c0 1.1046-.8954 2-2 2h-20c-1.10457 0-2-.8954-2-2z" fill="#fff"/><path d="m14.4337 4.59732h-4.86723v8.80548h4.86723z" fill="#ff5f00"/><path d="m9.87555 8.99999c-.00077-.84802.19015-1.68511.55825-2.44789.368-.76278.9037-1.43126 1.5663-1.95482-.8206-.64935-1.8061-1.05317-2.84387-1.1653-1.03779-.11214-2.08598.07193-3.02477.53117s-1.7303 1.17512-2.28405 2.06581c-.55375.8907-.84741 1.92027-.84741 2.97103 0 1.05081.29366 2.08031.84741 2.97101s1.34526 1.6066 2.28405 2.0658c.93879.4593 1.98698.6433 3.02477.5312 1.03777-.1121 2.02327-.5159 2.84387-1.1653-.6626-.5236-1.1982-1.192-1.5663-1.9548s-.55901-1.59988-.55825-2.44791z" fill="#eb001b"/><path d="m21 8.99999c.0001 1.05071-.2935 2.08031-.8473 2.97101-.5537.8907-1.3452 1.6066-2.2839 2.0658-.9388.4593-1.987.6433-3.0248.5312-1.0377-.1121-2.0232-.5159-2.8438-1.1653.662-.5241 1.1973-1.1927 1.5653-1.9553.368-.7627.5593-1.59951.5593-2.44741 0-.84789-.1913-1.68472-.5593-2.44738s-.9033-1.43124-1.5653-1.95534c.8206-.64934 1.8061-1.05316 2.8438-1.16529 1.0378-.11214 2.086.07194 3.0248.53118.9387.45925 1.7302 1.17513 2.2839 2.06582.5538.8907.8474 1.92026.8473 2.97101z" fill="#f79e1b"/></svg>