<svg fill="none" height="18" viewBox="0 0 24 18" width="24" xmlns="http://www.w3.org/2000/svg" xmlns:xlink="http://www.w3.org/1999/xlink"><linearGradient id="payment-icon-mir-1" gradientUnits="userSpaceOnUse" x1="16.1954" x2="21.9932" y1="7.13506" y2="7.13506"><stop offset="0" stop-color="#00a0e5"/><stop offset="1" stop-color="#0077c3"/></linearGradient><path d="m0 2c0-1.10457.895431-2 2-2h20c1.1046 0 2 .895431 2 2v14c0 1.1046-.8954 2-2 2h-20c-1.10457 0-2-.8954-2-2z" fill="#fff"/><path clip-rule="evenodd" d="m16.1954 6c.1004 1.26852 1.3005 2.27011 2.7662 2.27011h2.9979c.0221-.11633.0337-.23641.0337-.35919 0-1.05081-.8478-1.90315-1.8966-1.91087z" fill="url(#payment-icon-mir-1)" fill-rule="evenodd"/><g fill="#37a72e"><path d="m6.19787 11.6322 1.00768-3.296c.00891-.0538.05565-.09482.11198-.09482.06269 0 .1135.05082.1135.1135v3.27732h1.72414v-5.6322h-1.92036c-.31729 0-.64963.24599-.74241.54943l-.83909 2.74456c-.0417.1364-.10944.13655-.15119 0l-.83909-2.74456c-.09271-.30323-.42516-.54943-.74241-.54943h-1.92062v5.6322h1.72414l.00001-3.27588-.00001-.00144c0-.06268.05082-.1135.1135-.1135.05563 0 .10191.04001.11163.09282l1.00829 3.298z"/><path d="m13.6437 8.23993.0013-.0029c.0177-.03171.0517-.05312.0906-.05312.0562 0 .1019.04476.1034.10056l.0001 3.34773h1.7241v-5.6322h-1.7241c-.2187.00728-.4657.16772-.5575.36466l-1.3721 2.94244c-.0034.01203-.0087.02326-.0155.03334l-.0005.00098c-.0208.02988-.0555.04938-.0946.04938-.0635 0-.115-.05146-.115-.11494v-3.27586h-1.72413v5.6322h1.72413c.2163-.0113.4575-.1706.548-.3647l1.4082-3.01998c.0011-.00259.0023-.00512.0036-.00759z"/><path d="m16.4253 8.55746v3.10344h1.7241v-1.83907h1.954c.8224-.0061 1.521-.53144 1.7845-1.26437z"/></g></svg>
