<svg width="24" height="18" viewBox="0 0 24 18" fill="none" xmlns="http://www.w3.org/2000/svg">
    <g clip-path="url(#naranja)">
        <path fill="#FF5000" d="M24 0H0v18h24V0Z"/>
        <path fill="#fff" d="M6.5 12.833v-2.225c1.879-.002 3.401-1.499 3.404-3.346V4.167h2.263v3.095c0 3.072-2.542 5.571-5.667 5.571Z" opacity=".7"/>
        <path fill="#fff" d="M16.392 15h.025c.598 0 1.083-.504 1.083-1.126V4.126C17.5 3.504 17.015 3 16.417 3c-.599 0-1.084.504-1.084 1.126v5.55L11.957 3.59a1.13 1.13 0 0 0-1.532-.454 1.131 1.131 0 0 0-.591.96c-.005.198.041.393.136.567l5.405 9.745a1.13 1.13 0 0 0 .995.591l.001.001h.021Z"/>
    </g>
    <defs>
        <clipPath id="naranja">
            <path fill="#fff" d="M0 0h24v18H0z"/>
        </clipPath>
    </defs>
</svg>
