<svg fill="none" height="18" viewBox="0 0 24 18" width="24" xmlns="http://www.w3.org/2000/svg"><path d="m0 2c0-1.10457.895431-2 2-2h20c1.1046 0 2 .895431 2 2v14c0 1.1046-.8954 2-2 2h-20c-1.10457 0-2-.8954-2-2z" fill="#fff"/><g fill="#2b3797"><path clip-rule="evenodd" d="m11.7391 6.45584.6698-.04263-.4915 2.58141c-.1662.77984-.6287 1.33448-1.6919 1.33448-1.03781 0-1.51373-.65013-1.31794-1.48795.21732-.92925 1.03979-1.32534 1.98214-1.32534.2193 0 .3216.00431.46.01015.0516.00218.1081.00456.1777.00702zm-.5425 2.63004.2202-1.10003c-.9609-.10874-1.59702.1235-1.7925.90334-.13826.54972.02801.94039.6578.94039.5489 0 .8175-.29775.9145-.7437z" fill-rule="evenodd"/><path d="m3.30347 8.3583c.01371-.33344.85846-.41492 1.84042-.32546l.13841-.38345c-1.68439-.24744-2.71349.1235-2.74225.81132-.02159.51705.48515.58388.93108.64268.35043.04621.6633.08747.6527.33838-.02244.53646-1.04868.52366-2.02145.36929l-.10241.40164c.56417.1722 2.84421.4835 2.8903-.86958.0182-.52998-.51706-.61034-.97077-.67845-.33472-.05025-.62504-.09384-.61603-.30637z"/><path clip-rule="evenodd" d="m5.26904 8.9532c.19308-.84144.97805-1.40622 1.95458-1.40622.97624 0 1.50185.56493 1.30832 1.40622-.19307.84189-.97834 1.4067-1.95442 1.4067-.97609 0-1.50201-.56481-1.30848-1.4067zm1.39959.91945c.5333 0 .98121-.35468 1.12293-.91945.14172-.56478-.12109-.94385-.65394-.94385-.53314 0-.98617.37907-1.12804.94385-.14955.59625.10136.91945.65905.91945z" fill-rule="evenodd"/><path d="m17.6575 10.3456h.8488s-1.7619-1.82284-2.4503-2.77286h-.6229c.725 1.17684 1.7096 2.28892 2.2244 2.77286z"/><path d="m19.7865 4.02383-.3907.81419-.6946-.31779.31.73677-.7556.43044.7764.10527-.2467.8553.6581-.60695.4479.63617.0445-.86087.8056-.0622-.6037-.46764.5565-.71357-.7963.27862z"/><g clip-rule="evenodd" fill-rule="evenodd"><path d="m18.4889 8.96178c.1965-.85484.9937-1.42896 1.9854-1.42896.9919 0 1.5257.57412 1.3291 1.42896-.1961.855-.9935 1.42882-1.9853 1.42882-.9916 0-1.5256-.57382-1.3292-1.42882zm1.4219.93392c.5415 0 .9964-.36025 1.1403-.93392.1443-.57366-.1224-.95876-.6643-.95876-.5414 0-1.0015.3851-1.1455.95876-.1521.60559.1032.93392.6695.93392z"/><path d="m14.2225 7.54166c.7411 0 1.0677.30113 1.0678.71101 0 .81403-1.2116 1.09838-2.3434.86343-.0029.03509-.0048.07034-.0048.10558 0 .88742 1.0187.97622 1.8482.88742 0 0-.4352.3212-1.0871.3212-.9459 0-1.4639-.51854-1.4639-1.14236 0-.96599.7811-1.74628 1.9832-1.74628zm.4074.74189c0-.21296-.1672-.32441-.4742-.32441-.5567 0-.9427.33013-1.1136.75333.486.09895 1.5878.1363 1.5878-.42892z"/></g></g><path d="m14.7893 10.109c1.6032-.89051 2.9959-2.25891 3.9836-3.44192-.7101 2.22264-2.4195 3.41872-3.9836 3.44192z" fill="#ed1c24"/></svg>