<svg fill="none" height="18" viewBox="0 0 24 18" width="24" xmlns="http://www.w3.org/2000/svg"><path d="m0 2c0-1.10457.895431-2 2-2h20c1.1046 0 2 .895431 2 2v14c0 1.1046-.8954 2-2 2h-20c-1.10457 0-2-.8954-2-2z" fill="#fff"/><g fill="#052c18"><path clip-rule="evenodd" d="m17.0139 6.97441v4.31619h1.0494v-1.282s.6322.0214.9838-.07214c.3516-.09347 1.1439-.41133 1.1439-1.47436 0-1.06304-.6769-1.5171-1.6135-1.58385-.5116-.03205-1.5636.09616-1.5636.09616zm1.0494.89743v1.19658s.5167.10034.85-.13534c.2519-.17803.2117-.52705.1871-.63389-.0244-.10684-.1163-.32051-.3296-.39884-.3002-.11026-.7075-.02851-.7075-.02851z" fill-rule="evenodd"/><path d="m3.87538 6.97473v2.82051s-.02447.56266.3743 1.00426c.39876.4416 1.11058.5342 1.55132.52.44074-.0143 1.30648-.1069 1.64228-.228v-4.11677h-1.09135v3.37607s-.50719.1353-.87099.0499c-.3638-.0855-.55617-.3846-.55617-.79063v-2.63534z"/><path d="m7.90189 11.291 1.6545-4.31627h1.28721l.6157 1.64885-.112.39355-.7625.12551-.3988-1.09107-1.15431 3.23943z"/><path d="m12.5227 7.9149v-.94017h3.5679v.94017h-1.2593v3.3761h-1.0494v-3.3761z"/><path d="m20.071 7.07536.0006-.06675.3122.00132.0007.06342-.1155.00226-.0013.33278-.0774.0012-.0006-.33355z"/><path d="m20.432 7.00979.0006.40064.0721-.00132-.0006-.31184.0846.31051.0685-.00137.0863-.31718.0039.32052.0709-.00133-.0014-.40128-.1121.00064-.0781.28111-.078-.28175z"/><path d="m11.3048 11.2481-.4757-1.38887s.1912-.05812.4599-.17629c.2309-.10149.4985-.23683.4985-.23683l.6786 1.79489z"/></g><g fill="#43b748"><path d="m17.3024 6.67538c-.8762.12286-1.2191.29915-1.2191.29915h-2.0112s.9321-.40599 1.5513-.50214c.6191-.09615 1.3537-.12821 1.637-.11752.2834.01068 1.233.09615 1.8417.28312l-.0053.08013s-1.0696-.14436-1.7944-.04274z"/><path d="m9.6288 9.60551s.7057-.19496 2.8937-1.69068h1.2592l-.0035.17807s-2.2474 1.54735-4.29371 1.932c.12332-.36063.14431-.41939.14431-.41939z"/><path d="m8.30347 10.2384.0892-.235s-.5142.1575-.80014.215c-.00264.0681-.00264.0841-.00264.0841s.18629-.0134.36468-.0294c.1784-.016.3489-.0347.3489-.0347z"/></g></svg>