<svg fill="none" height="18" viewBox="0 0 24 18" width="24" xmlns="http://www.w3.org/2000/svg"><path d="m0 2c0-1.10457.895431-2 2-2h20c1.1046 0 2 .895431 2 2v14c0 1.1046-.8954 2-2 2h-20c-1.10457 0-2-.8954-2-2z" fill="#fff"/><path d="m5.30919 2h5.48951c.7694 0 1.2444.63773 1.0657 1.41939l-2.55771 11.16481c-.17874.7798-.94693 1.4158-1.71284 1.4158h-5.49126c-.76765 0-1.24333-.636-1.06523-1.4158l2.55661-11.16481c.17929-.78166.94693-1.41939 1.71522-1.41939z" fill="#ed171f"/><path d="m10.3444 2h6.3126c.767 0 .4214.63773.2409 1.41939l-2.5567 11.16481c-.1786.7798-.1226 1.4158-.8908 1.4158h-6.31262c-.76948 0-1.24505-.636-1.06458-1.4158l2.55478-11.16481c.18177-.78166.94693-1.41939 1.71642-1.41939z" fill="#082f67"/><path d="m16.4077 2h5.4882c.7683 0 1.2457.63773 1.0664 1.41939l-2.5578 11.16481c-.1787.7798-.9475 1.4158-1.7146 1.4158h-5.4889c-.7671 0-1.2438-.636-1.064-1.4158l2.5561-11.16481c.1793-.78166.9469-1.41939 1.7146-1.41939z" fill="#006a65"/><path d="m9.43162 7.76251c-.16403-.09743-.44507-.06748-.63842.06639-.19269.13117-.21637.31305-.05363.40951.16101.09591.44756.0678.63842-.06564.18967-.13387.21648-.31791.05363-.41026zm12.12828.17161-.0268-.03104c-.3573.07256-.4219.08424-.7493.12684l-.0238.02315c-.0012.00346-.0012.00962-.0037.01546l-.0018-.00584c-.2445.5637-.2353.44065-.4347.88302-.0037-.01957-.0037-.03374-.0037-.05363l-.0488-.95796-.0311-.03104c-.3726.07256-.3829.08424-.7262.12684l-.0293.02315c0 .01308-.0018.02649-.0036.03763l.0036.00616c.0403.21962.0324.16999.0732.51796.0214.16966.0488.34214.0688.50899.033.28234.0531.42053.0945.85069-.2334.3814-.2889.5279-.5096.8647l.0006.0019-.1586.2507c-.0195.0261-.0352.0429-.0585.0498-.025.0129-.0586.0175-.1029.0175h-.0886l-.1299.4306.4471.0069c.2621-.0012.4261-.1229.5152-.2874l.2804-.4793h-.0037l.0287-.0342c.1878-.4054 1.6225-2.86158 1.6225-2.86158zm-5.123-.36733c-.0518.22902-.1987.42388-.3902.51493-.1604.07991-.3524.08662-.5524.08662h-.1294l.0099-.05039s.2383-1.03355.2371-1.03128l.0074-.0518.0048-.04109.0952.00919s.4878.04142.5005.04142c.1927.07548.2725.27055.2171.5224zm.8823-.06391c.0232-.09213.0396-.20351.0396-.31197 0-.14652-.028-.28536-.1115-.39826-.2141-.29661-.633-.30007-1.1231-.30266l-.2391.00259c-.6244.00703-.8725.00346-.9768-.00973-.0086.04617-.0275.1276-.0275.1276l-.2213 1.03657s-.5335 2.19977-.5591 2.30272c.5426-.00628.7683-.00628.8585.00346.0238-.10403.1506-.71974.1506-.71974s.1073-.44898.1135-.46509c0 0 .0365-.04628.07-.06639h.0495c.4688 0 1.0005 0 1.4169-.30353.2805-.21065.4732-.52024.5598-.89557zm-3.7908.40226c-.1036 0-.2938.02541-.464.10932-.0609.03244-.1225.06726-.1822.10522l.0548-.20243-.0299-.03385c-.3615.07299-.4408.08478-.7749.13106l-.0263.0186c-.0401.32029-.0743.56122-.2177 1.19358-.0548.22892-.1103.46401-.1682.69725l.017.02931c.3403-.01666.4439-.01666.739-.01309l.0274-.02595c.0355-.19345.0422-.238.1226-.62977.0402-.18686.1238-.59431.1647-.73986.0731-.03308.1463-.06488.2195-.06488.1622 0 .1438.14317.1378.20254-.0073.09645-.0671.41318-.1305.68622l-.0403.17366c-.031.13117-.064.25725-.092.38777l.0122.02336c.3397-.01666.4396-.01666.7273-.01309l.036-.02595c.0507-.30104.0641-.38279.1586-.82139l.0439-.20188c.0926-.39566.1378-.59517.0707-.75867-.0744-.18296-.2494-.22708-.4055-.22708zm4.6828.87545c-.0122.05601-.0249.11484-.0402.18113-.0226.09775-.0482.19453-.072.29174-.025.06586-.053.12792-.0847.1688-.061.08413-.2.13517-.2817.13517-.0219 0-.1622 0-.1677-.20838-.0012-.10143.0208-.20848.0458-.32678.0769-.32732.1665-.60847.3957-.60847.1457 0 .2213.13517.2048.36679zm.5293 1.1645c.0507-.29802.1-.58717.231-1.16061.0623-.27303.1288-.54607.1959-.8163l-.0129-.03039c-.3598.06575-.4548.07981-.7993.13074l-.0287.02022c-.0031.02725-.0067.05374-.0104.08023-.0542-.08726-.1329-.16198-.2542-.20891-.1518-.05828-.5146.02152-.8239.30321-.217.20091-.3231.47752-.3841.74212-.0615.26731-.1353.75629.3147.93114.142.05915.2707.07686.3988.07196.1366-.0075.2628-.07606.3811-.17457-.011.04055-.0213.08099-.0324.12143l.0207.02476c.3232-.01276.4226-.01276.7713-.01168zm-7.843-1.02836c-.0134.07224-.0794.35111-.1684.46887-.0603.08791-.1347.14079-.217.14079-.0226 0-.1652 0-.1677-.21108-.003-.10402.0196-.21248.0476-.32894.0737-.33576.1658-.61809.3944-.61809.1788 0 .1902.21161.1111.54845zm-.011-.99948c-.1653 0-.5597.01687-.8682.30245-.21902.2021-.32142.48066-.38544.74548-.06098.27325-.13419.76126.31586.94401.14018.05817.33898.07461.46708.07461.331 0 .6682-.09137.9206-.3603.1977-.21735.286-.53992.3159-.67563.103-.44453.0256-.65021-.0738-.77651-.1524-.19129-.4159-.25411-.692-.25411zm-1.45909.40161c-.1781.03449-.29272.05525-.40432.07385-.11278.01698-.22254.03277-.3975.05656l-.0134.01265-.01168.00973c-.01828.12976-.03039.23963-.05418.37177-.0239.13495-.05374.2898-.10424.50942-.03914.16912-.05926.22794-.08186.28753-.02119.0599-.04509.11883-.08769.28352l.00973.0146.00973.01471c.16155-.00811.26525-.01309.37447-.01471.10911-.00195.22135 0 .39501.00162l.01644-.01027.01535-.01568c.02563-.15009.02855-.1901.04445-.2645.01524-.07828.04087-.18588.10608-.47503.02995-.13863.06585-.2726.09699-.41156.03406-.14025.0664-.27617.09819-.41318l-.00433-.01405zm-1.63423-.41372c-.10359 0-.29315.02541-.46336.10932-.06336.03244-.12251.06726-.18285.10522l.05417-.20243-.03038-.03385c-.36041.07299-.44205.08478-.77435.13106l-.02628.0186c-.04206.32029-.07255.56122-.21897 1.19358-.05482.22892-.11203.46401-.16944.69725l.01524.02931c.34636-.01666.44692-.01666.74386-.01309l.02562-.02595c.03536-.19345.04142-.238.1262-.62977.03784-.18686.11894-.59431.15982-.73986.07548-.03308.14695-.06488.21832-.06488.16642 0 .14501.14317.14068.20254-.00659.09645-.06942.41318-.1316.68622l-.04022.17366c-.02866.13117-.06099.25725-.08964.38777l.01276.02336c.33727-.01666.43718-.01666.72622-.01309l.03353-.02595c.05244-.30104.06834-.38279.16101-.82139l.04628-.20188c.09029-.39566.13473-.59517.0665-.75867-.07202-.18296-.24579-.22708-.40312-.22708zm-1.46511-1.40001c-.59085.00638-.76278 0-.8189-.01255-.02314.10013-.4214 1.93517-.4214 1.93517-.08651.37241-.14998.63788-.3603.80571-.12133.10056-.26158.15019-.42443.15019-.26028 0-.41275-.1303-.44021-.37825l-.00238-.0825s.07807-.49742.0798-.5011c0 0 .41589-1.67218.49147-1.89278.00184-.01308.00368-.01751.00671-.02389-.81458.00724-.95904 0-.96824-.01255-.00367.01644-.02746.12046-.02746.12046l-.42497 1.88219-.03785.16187-.06942.52218c0 .15474.0305.27985.09083.38853.19692.34138.74991.38982 1.06458.38982.40313 0 .77987-.08478 1.03658-.24211.44508-.2619.56273-.67195.66459-1.03582l.04942-.18804s.43113-1.73599.50542-1.96264c0-.01308.00248-.01751.00616-.02389z" fill="#fff"/></svg>