<svg fill="none" height="18" viewBox="0 0 24 18" width="24" xmlns="http://www.w3.org/2000/svg"><path d="m0 2c0-1.10457.895431-2 2-2h20c1.1046 0 2 .895431 2 2v14c0 1.1046-.8954 2-2 2h-20c-1.10457 0-2-.8954-2-2z" fill="#fff"/><path d="m14.6781 5.60001c-1.4911 0-2.8236.77285-2.8236 2.20076 0 1.63755 2.3632 1.75065 2.3632 2.57333 0 .3464-.3969.6564-1.0749.6564-.9622 0-1.6814-.4332-1.6814-.4332l-.3077 1.4409s.8285.366 1.9284.366c1.6302 0 2.913-.8108 2.913-2.2632 0-1.73032-2.3731-1.84007-2.3731-2.60363 0-.27134.3259-.56865 1.0019-.56865.7628 0 1.3851.31509 1.3851.31509l.3012-1.39168s-.6772-.29212-1.6321-.29212zm-13.64199.10503-.03611.21006s.6273.11481 1.19229.34382c.72746.26261.77929.41549.9018.89032l1.33507 5.14656h1.78966l2.75711-6.59076h-1.78556l-1.77161 4.48116-.72292-3.79845c-.0663-.43472-.40212-.68271-.81318-.68271zm8.65782 0-1.40071 6.59076h1.70268l1.3958-6.59076zm9.49647 0c-.4106 0-.6281.21981-.7878.60394l-2.4945 5.98682h1.7856l.3454-.9978h2.1753l.2101.9978h1.5755l-1.3745-6.59076zm.2322 1.78063.5293 2.4732h-1.418z" fill="#1434cb"/></svg>